<?xml version="1.0" encoding="UTF-8"?>
<svg id="Capa_2" data-name="Capa 2" xmlns="http://www.w3.org/2000/svg" viewBox="0 0 2267.39 928.51">
  <defs>
    <style>
      .cls-1 {
        fill: #5697d3;
      }

      .cls-2 {
        fill: #294b97;
      }

      .cls-3 {
        fill: #3f3e3e;
      }
    </style>
  </defs>
  <g id="Layer_1" data-name="Layer 1">
    <g>
      <g>
        <path class="cls-1" d="M363.62,598.93l-42.82-90.55H115.83l-42.12,90.55H0L214.1,151.77h7.72s214.1,447.16,214.1,447.16h-72.31ZM138.99,452.91h158.65l-80.03-172.69-78.62,172.69Z"/>
        <path class="cls-1" d="M439.42,380.61c0-140.4,97.58-222.53,226.74-222.53,85.64,0,146.01,42.12,146.01,42.12l-5.62,63.17s-65.99-47.73-139-47.73c-85.64,0-155.84,58.97-155.84,163.57,0,103.89,66.69,166.37,154.44,166.37,83.53,0,131.27-44.93,131.27-44.93l28.78,56.86c-51.95,34.39-106,47.04-160.05,47.04-129.17,0-226.74-83.54-226.74-223.94Z"/>
        <path class="cls-1" d="M1031.16,598.93h-68.79V220.56h-115.13s14.04-56.86,14.04-56.86h277.99v56.86s-108.11,0-108.11,0v378.37Z"/>
        <path class="cls-1" d="M1202.43,163.7h70.2s0,435.23,0,435.23h-70.2V163.7Z"/>
        <path class="cls-1" d="M2195.09,598.93l-42.82-90.55h-204.98l-42.12,90.55h-73.71s214.1-447.16,214.1-447.16h7.72l214.1,447.16h-72.31ZM1970.45,452.91h158.65l-80.03-172.69-78.62,172.69ZM2058.91,33.83l73.71,14.04-56.16,65.98h-51.24l33.7-80.02Z"/>
      </g>
      <g>
        <path class="cls-3" d="M189.23,898.5c0,9.6-2.3,17-6.9,22.21-4.6,5.21-11.01,7.81-19.24,7.81-1.78,0-3.44-.14-4.96-.43-1.52-.28-3.09-.69-4.7-1.21l1.12-8.71c.86.28,2.08.58,3.66.86,1.58.29,3.01.43,4.27.43,5.18,0,9.2-1.76,12.08-5.3,2.88-3.54,4.31-8.76,4.31-15.65v-92.23s-14.06-1.12-14.06-1.12v-7.67s24.41,0,24.41,0v101.02ZM188.71,770.38h-10.35s0-14.14,0-14.14h10.35s0,14.14,0,14.14Z"/>
        <path class="cls-3" d="M279.99,875.46c-2.93,5.47-6.94,9.69-12.04,12.68-5.09,2.99-11.09,4.48-17.98,4.48-9.84,0-17.53-3.33-23.08-10.01-5.55-6.67-8.33-17.03-8.33-31.06v-45.29s-11.56-1.12-11.56-1.12v-7.67h11.56s10.27,0,10.27,0v54.26c0,11.38,1.94,19.55,5.82,24.5,3.88,4.94,9.39,7.41,16.52,7.41,7.82,0,14.05-1.73,18.67-5.18,4.63-3.45,7.89-8.23,9.79-14.32v-57.89s-13.28-1.12-13.28-1.12v-7.67s13.28,0,13.28,0h10.35s0,84.62,0,84.62l12.51,1.12v7.59s-21.57,0-21.57,0l-.95-15.36Z"/>
        <path class="cls-3" d="M344.76,805.15l-11.64.87,23.29,61.42,3.03,10.95h.51s3.28-10.95,3.28-10.95l22.95-61.42-11.64-.87v-7.67s31.4,0,31.4,0v7.67s-9.14.78-9.14.78l-32.96,84.88h-8.28s-33.04-84.88-33.04-84.88l-9.14-.78v-7.67s31.4,0,31.4,0v7.67Z"/>
        <path class="cls-3" d="M457.35,892.63c-11.73,0-21.45-4.3-29.16-12.9-7.71-8.6-11.56-19.54-11.56-32.82v-4.75c0-13.34,3.84-24.41,11.52-33.21,7.67-8.8,16.95-13.2,27.82-13.2,11.44,0,20.45,3.62,27,10.86,6.56,7.25,9.83,16.91,9.83,28.99v8.8s-65.9,0-65.9,0v2.51c0,10.46,2.8,19.25,8.41,26.35,5.61,7.1,12.96,10.65,22.04,10.65,6.38,0,11.85-.89,16.39-2.67,4.55-1.79,8.43-4.34,11.65-7.68l4.4,7.08c-3.51,3.68-7.93,6.6-13.28,8.75-5.35,2.16-11.73,3.24-19.15,3.24ZM455.97,804.54c-7.59,0-13.99,2.92-19.19,8.76-5.21,5.84-8.24,13.16-9.11,21.96l.17.43h54.69s0-2.58,0-2.58c0-8.11-2.39-14.9-7.16-20.36-4.77-5.47-11.24-8.2-19.41-8.2Z"/>
        <path class="cls-3" d="M509.36,883.22l14.06-1.12v-75.83s-14.06-1.12-14.06-1.12v-7.67s23.21,0,23.21,0l.95,16.3c2.99-5.75,7.03-10.19,12.12-13.33,5.09-3.13,11.12-4.7,18.07-4.7,10.12,0,17.83,3.09,23.12,9.27,5.29,6.18,7.93,15.83,7.93,28.94v48.14s14.06,1.12,14.06,1.12v7.59s-38.47,0-38.47,0v-7.59s14.06-1.12,14.06-1.12v-48.05c0-10.7-1.99-18.25-6-22.68-3.99-4.44-9.67-6.65-17.03-6.65-7.25,0-13.16,1.91-17.73,5.74-4.58,3.82-7.87,8.89-9.88,15.22v56.42s14.06,1.12,14.06,1.12v7.59s-38.48,0-38.48,0v-7.59Z"/>
        <path class="cls-3" d="M648.77,773.58v23.9s20.53,0,20.53,0v8.45s-20.53,0-20.53,0v60.82c0,6.1,1.11,10.42,3.32,12.98,2.21,2.56,5.16,3.84,8.84,3.84,1.67,0,3.29-.07,4.88-.21,1.58-.14,3.4-.39,5.48-.73l1.55,7.67c-1.73.75-3.82,1.32-6.3,1.73s-4.95.61-7.42.61c-6.56,0-11.66-2.07-15.31-6.21-3.66-4.14-5.48-10.7-5.48-19.67v-60.82s-16.04,0-16.04,0v-8.45s16.04,0,16.04,0v-23.9s10.44,0,10.44,0Z"/>
        <path class="cls-3" d="M756.86,875.46c-2.93,5.47-6.94,9.69-12.04,12.68-5.09,2.99-11.09,4.48-17.98,4.48-9.84,0-17.53-3.33-23.08-10.01-5.55-6.67-8.33-17.03-8.33-31.06v-45.29s-11.56-1.12-11.56-1.12v-7.67h11.56s10.27,0,10.27,0v54.26c0,11.38,1.94,19.55,5.82,24.5,3.88,4.94,9.39,7.41,16.52,7.41,7.82,0,14.05-1.73,18.67-5.18,4.63-3.45,7.89-8.23,9.79-14.32v-57.89s-13.28-1.12-13.28-1.12v-7.67s13.28,0,13.28,0h10.35s0,84.62,0,84.62l12.51,1.12v7.59s-21.57,0-21.57,0l-.95-15.36Z"/>
        <path class="cls-3" d="M859.44,877.36c-3.1,4.88-7.1,8.66-11.99,11.3-4.88,2.65-10.64,3.97-17.25,3.97-11.16,0-19.89-4.17-26.18-12.51-6.3-8.34-9.45-19.47-9.45-33.38v-1.81c0-14.9,3.15-26.82,9.45-35.76,6.3-8.94,15.08-13.41,26.35-13.41,6.5,0,12.13,1.36,16.91,4.1,4.77,2.73,8.75,6.63,11.9,11.68v-46.49s-14.06-1.13-14.06-1.13v-7.67s14.06,0,14.06,0h10.35s0,125.86,0,125.86l14.06,1.12v7.59s-23.29,0-23.29,0l-.87-13.46ZM805,846.73c0,11.27,2.25,20.24,6.78,26.91,4.51,6.67,11.31,10.01,20.4,10.01,6.61,0,12.15-1.5,16.61-4.48,4.45-2.99,7.92-7.11,10.39-12.34v-44.17c-2.3-5.29-5.62-9.6-9.96-12.94-4.35-3.33-9.97-5-16.87-5-9.08,0-15.91,3.73-20.49,11.17-4.57,7.45-6.85,17.13-6.85,29.03v1.81Z"/>
        <path class="cls-3" d="M940.62,892.63c-11.73,0-21.45-4.3-29.16-12.9-7.71-8.6-11.56-19.54-11.56-32.82v-4.75c0-13.34,3.84-24.41,11.52-33.21,7.67-8.8,16.95-13.2,27.82-13.2,11.44,0,20.45,3.62,27,10.86,6.56,7.25,9.83,16.91,9.83,28.99v8.8s-65.9,0-65.9,0v2.51c0,10.46,2.8,19.25,8.41,26.35,5.61,7.1,12.96,10.65,22.04,10.65,6.38,0,11.85-.89,16.39-2.67,4.55-1.79,8.43-4.34,11.65-7.68l4.4,7.08c-3.51,3.68-7.93,6.6-13.28,8.75-5.35,2.16-11.73,3.24-19.15,3.24ZM939.24,804.54c-7.59,0-13.99,2.92-19.19,8.76-5.21,5.84-8.24,13.16-9.11,21.96l.17.43h54.69s0-2.58,0-2.58c0-8.11-2.39-14.9-7.16-20.36-4.77-5.47-11.24-8.2-19.41-8.2Z"/>
        <path class="cls-3" d="M1062.25,826.29h-8.45s-1.21-13.2-1.21-13.2c-2.58-2.7-5.85-4.8-9.79-6.3-3.94-1.5-8.47-2.25-13.58-2.25-7.54,0-13.19,1.63-16.95,4.88-3.77,3.25-5.65,7.06-5.65,11.43,0,4.31,1.62,7.88,4.88,10.7,3.25,2.81,9.73,5.29,19.45,7.41,11.1,2.47,19.41,5.85,24.93,10.14,5.52,4.29,8.28,10.11,8.28,17.47,0,7.77-3.14,14.05-9.45,18.85-6.3,4.8-14.62,7.2-24.98,7.2-6.89,0-13.18-.96-18.85-2.89-5.66-1.92-10.57-4.64-14.71-8.15v-18.81s8.37,0,8.37,0l1.47,13.29c2.77,2.76,6.26,4.76,10.49,6,4.22,1.24,8.63,1.85,13.24,1.85,7.48,0,13.38-1.64,17.69-4.92,4.32-3.28,6.47-7.25,6.47-11.9,0-4.37-1.8-8.19-5.39-11.47-3.59-3.28-10.08-5.96-19.45-8.03-11.1-2.41-19.34-5.62-24.72-9.62-5.38-3.99-8.07-9.59-8.07-16.77s3.02-13.16,9.06-18.07c6.04-4.92,14-7.37,23.9-7.37,6.84,0,13.09,1.05,18.76,3.14,5.66,2.1,10.28,4.93,13.85,8.5l.43,18.89Z"/>
        <path class="cls-3" d="M1215.46,805.15l-9.49.78-37.7,99.81c-2.41,6.33-5.55,11.71-9.4,16.14s-9.49,6.64-16.91,6.64c-1.21,0-2.68-.13-4.4-.39-1.73-.26-2.99-.54-3.79-.82l1.21-8.63c.69.11,1.8.24,3.32.39,1.53.14,2.61.21,3.24.21,4.55,0,8.14-1.58,10.79-4.74,2.64-3.16,4.97-7.27,6.99-12.34l4.83-12.5-33.13-83.77-9.49-.78v-7.67s32.09,0,32.09,0v7.67s-11.13.87-11.13.87l22.78,59.52,3.28,11.21h.52s25.53-70.73,25.53-70.73l-11.38-.87v-7.67s32.26,0,32.26,0v7.67Z"/>
        <path class="cls-3" d="M1267.91,805.15v-7.67s23.21,0,23.21,0l.95,15.44c2.99-5.47,6.99-9.69,11.99-12.68,5-2.99,10.96-4.48,17.86-4.48,7.13,0,13.08,1.74,17.85,5.22,4.77,3.48,8.2,8.78,10.27,15.91,2.82-6.56,6.83-11.72,12.04-15.48,5.2-3.77,11.54-5.65,19.02-5.65,9.95,0,17.64,3.3,23.08,9.92,5.44,6.61,8.15,16.85,8.15,30.71v45.63s14.06,1.21,14.06,1.21v7.59s-38.57,0-38.57,0v-7.59s14.06-1.21,14.06-1.21v-45.81c0-11.5-2.02-19.63-6.08-24.37-4.06-4.74-9.71-7.12-16.95-7.12-8.05,0-14.24,2.56-18.59,7.68-4.34,5.12-7.04,11.64-8.07,19.58,0,.46.02.9.05,1.3.02.4.04.92.04,1.55v47.27s14.06,1.12,14.06,1.12v7.59s-38.48,0-38.48,0v-7.59s14.06-1.12,14.06-1.12v-45.89c0-11.27-2.06-19.33-6.17-24.2-4.11-4.86-9.76-7.3-16.95-7.3-7.37,0-13.19,1.86-17.47,5.57-4.29,3.7-7.29,8.7-9.01,14.96v56.85s14.06,1.12,14.06,1.12v7.59s-38.48,0-38.48,0v-7.59s14.06-1.12,14.06-1.12v-75.83s-14.06-1.12-14.06-1.12Z"/>
        <path class="cls-3" d="M1438.47,883.22l14.06-1.12v-75.83s-14.06-1.12-14.06-1.12v-7.67s24.32,0,24.32,0v84.62s14.06,1.12,14.06,1.12v7.59s-38.38,0-38.38,0v-7.59ZM1462.79,770.73h-10.27s0-14.49,0-14.49h10.27s0,14.49,0,14.49Z"/>
        <path class="cls-3" d="M1492.12,763.91v-7.67s24.33,0,24.33,0v125.86s14.06,1.12,14.06,1.12v7.59s-38.39,0-38.39,0v-7.59s14.06-1.12,14.06-1.12v-117.06s-14.06-1.13-14.06-1.13Z"/>
        <path class="cls-3" d="M1546.13,883.22l14.06-1.12v-75.83s-14.06-1.12-14.06-1.12v-7.67s24.32,0,24.32,0v84.62s14.06,1.12,14.06,1.12v7.59s-38.38,0-38.38,0v-7.59ZM1570.45,770.73h-10.27s0-14.49,0-14.49h10.27s0,14.49,0,14.49Z"/>
        <path class="cls-3" d="M1625.58,773.58v23.9s20.53,0,20.53,0v8.45s-20.53,0-20.53,0v60.82c0,6.1,1.11,10.42,3.32,12.98,2.21,2.56,5.16,3.84,8.84,3.84,1.67,0,3.29-.07,4.88-.21,1.58-.14,3.4-.39,5.48-.73l1.55,7.67c-1.73.75-3.82,1.32-6.3,1.73s-4.95.61-7.42.61c-6.56,0-11.66-2.07-15.31-6.21-3.66-4.14-5.48-10.7-5.48-19.67v-60.82s-16.04,0-16.04,0v-8.45s16.04,0,16.04,0v-23.9s10.44,0,10.44,0Z"/>
        <path class="cls-3" d="M1729.53,890.82c-.69-3.16-1.17-5.89-1.47-8.19-.28-2.3-.43-4.63-.43-6.99-3.44,4.88-8.05,8.94-13.8,12.16-5.75,3.21-12.23,4.83-19.41,4.83-9.15,0-16.22-2.36-21.22-7.08-5-4.71-7.5-11.1-7.5-19.15,0-8.63,3.71-15.47,11.12-20.53,7.42-5.06,17.48-7.59,30.2-7.59h20.61s0-12.34,0-12.34c0-6.67-2.14-11.9-6.42-15.7-4.29-3.8-10.28-5.7-17.99-5.7-5.18,0-9.91.71-14.19,2.12-4.29,1.41-7.87,3.32-10.75,5.74l-.86,12.51h-8.54s.09-17.95.09-17.95c4.31-3.33,9.47-6.04,15.48-8.11,6.01-2.07,12.41-3.1,19.2-3.1,10.29,0,18.57,2.62,24.84,7.85,6.27,5.23,9.4,12.74,9.4,22.52v45.89c0,1.9.05,3.73.13,5.48.09,1.76.27,3.47.56,5.14l9.32.6v7.59s-18.38,0-18.38,0ZM1695.54,883.48c7.48,0,14.06-1.73,19.76-5.18,5.69-3.45,9.8-7.9,12.33-13.37v-18.72s-20.78,0-20.78,0c-9.38,0-16.87,1.94-22.48,5.82-5.6,3.88-8.41,8.78-8.41,14.71,0,5,1.73,9.04,5.22,12.12,3.48,3.08,8.26,4.62,14.36,4.62Z"/>
        <path class="cls-3" d="M1760.67,883.22l14.06-1.12v-75.83s-14.06-1.12-14.06-1.12v-7.67s23.21,0,23.21,0l.95,16.3c2.99-5.75,7.03-10.19,12.12-13.33,5.09-3.13,11.12-4.7,18.07-4.7,10.12,0,17.83,3.09,23.12,9.27,5.29,6.18,7.93,15.83,7.93,28.94v48.14s14.06,1.12,14.06,1.12v7.59s-38.47,0-38.47,0v-7.59s14.06-1.12,14.06-1.12v-48.05c0-10.7-1.99-18.25-6-22.68-3.99-4.44-9.67-6.65-17.03-6.65-7.25,0-13.16,1.91-17.73,5.74-4.58,3.82-7.87,8.89-9.88,15.22v56.42s14.06,1.12,14.06,1.12v7.59s-38.48,0-38.48,0v-7.59Z"/>
        <path class="cls-3" d="M1915.34,883.91c6.84,0,12.88-1.95,18.11-5.87,5.23-3.91,7.85-9.34,7.85-16.3h9.14s.17.52.17.52c.29,8.63-3.15,15.84-10.31,21.65-7.16,5.81-15.49,8.71-24.98,8.71-12.65,0-22.46-4.36-29.42-13.07-6.96-8.71-10.44-19.91-10.44-33.6v-3.62c0-13.57,3.48-24.72,10.44-33.47,6.96-8.75,16.73-13.11,29.33-13.11,7.19,0,13.77,1.35,19.75,4.05s10.84,6.39,14.58,11.05l.43,20.36h-8.79s-1.64-16.56-1.64-16.56c-2.77-3.11-6.2-5.57-10.31-7.38-4.11-1.81-8.78-2.72-14.02-2.72-10.01,0-17.41,3.58-22.22,10.75-4.8,7.16-7.2,16.17-7.2,27.04v3.62c0,11.05,2.39,20.13,7.16,27.26,4.77,7.14,12.22,10.7,22.34,10.7Z"/>
        <path class="cls-3" d="M1969.18,883.22l14.06-1.12v-75.83s-14.06-1.12-14.06-1.12v-7.67s24.32,0,24.32,0v84.62s14.06,1.12,14.06,1.12v7.59s-38.38,0-38.38,0v-7.59ZM1993.5,770.73h-10.27s0-14.49,0-14.49h10.27s0,14.49,0,14.49Z"/>
        <path class="cls-3" d="M2089.34,890.82c-.69-3.16-1.17-5.89-1.47-8.19-.28-2.3-.43-4.63-.43-6.99-3.44,4.88-8.05,8.94-13.8,12.16-5.75,3.21-12.23,4.83-19.41,4.83-9.15,0-16.22-2.36-21.22-7.08-5-4.71-7.5-11.1-7.5-19.15,0-8.63,3.71-15.47,11.12-20.53,7.42-5.06,17.48-7.59,30.2-7.59h20.61s0-12.34,0-12.34c0-6.67-2.14-11.9-6.42-15.7-4.29-3.8-10.28-5.7-17.99-5.7-5.18,0-9.91.71-14.19,2.12-4.29,1.41-7.87,3.32-10.75,5.74l-.86,12.51h-8.54s.09-17.95.09-17.95c4.31-3.33,9.47-6.04,15.48-8.11,6.01-2.07,12.41-3.1,19.2-3.1,10.29,0,18.57,2.62,24.84,7.85,6.27,5.23,9.4,12.74,9.4,22.52v45.89c0,1.9.05,3.73.13,5.48.09,1.76.27,3.47.56,5.14l9.32.6v7.59s-18.38,0-18.38,0ZM2055.35,883.48c7.48,0,14.06-1.73,19.76-5.18,5.69-3.45,9.8-7.9,12.33-13.37v-18.72s-20.78,0-20.78,0c-9.38,0-16.87,1.94-22.48,5.82-5.6,3.88-8.41,8.78-8.41,14.71,0,5,1.73,9.04,5.22,12.12,3.48,3.08,8.26,4.62,14.36,4.62Z"/>
      </g>
      <g>
        <path class="cls-2" d="M1314.7,208.16c.42.59.86,1.03,1.39,1.1.18-.83-.74-1.33-1.39-1.1Z"/>
        <path class="cls-2" d="M1365.68,143.22c-.28-.6-.2-1.13-.84-1.81-1.2.63.26,1.58.84,1.81Z"/>
        <path class="cls-2" d="M1365.56,139.93c.12-.53-.62-1.94-1.3-1.49.46.39.71,1.74,1.3,1.49Z"/>
        <path class="cls-2" d="M1351.32,140.28c-.46-.4-.72-1.74-1.31-1.49-.15.71.73,1.4,1.31,1.49Z"/>
        <path class="cls-2" d="M1359.52,130.13c-.82-.91-1.52-2.4-2.54-2.35.72,1.41,1.56,2.22,2.54,2.35Z"/>
        <path class="cls-2" d="M1300.1,152.03c-.39,1.77,2.49,4.03,3.51,5.4-.54-2-3.01-3.21-3.51-5.4Z"/>
        <path class="cls-2" d="M1321.58,136.44c-.1-.57-.17-1.12-.45-1.72-1.35-.02-2.86-4.33-3.77-3.22,2.45,1.63,3.11,5.85,5.68,6.66.21-1.1-.94-1.16-1.46-1.72Z"/>
        <path class="cls-2" d="M1310.89,113.26c-.42.25-.7.54-.79.86.33.67.82.56,1.4.08l-.61-.94Z"/>
        <path class="cls-2" d="M1292.73,104.46c.42,2.37,2.73,5.58,4.74,6.27-2.66-2.83-3.5-5.62-6.2-7.99-1.56-2.36-.34.34.53,1.33.23.51.62.26.93.39Z"/>
        <path class="cls-2" d="M1308.3,101.5c.07-.44-.86-1.55-1.54-1.33.45.74.96,1.23,1.54,1.33Z"/>
        <path class="cls-2" d="M1276.62,120.56c.12-.85-.98-1.72-1.61-1.96.56.54.91,2.06,1.61,1.96Z"/>
        <path class="cls-2" d="M1300.62,100.56c.93.4,1.64,1.8,2.62,1.96-.72-.8-2.14-3.23-2.62-1.96Z"/>
        <path class="cls-2" d="M1305.76,99.15c-.86-.74-1.57-2.16-2.54-2.35.82.9,1.52,2.4,2.54,2.35Z"/>
        <path class="cls-2" d="M1269.62,122.2c-.66-.38-1.19-1.39-2.01-1.02.63.52,1.17,1.49,2.01,1.02Z"/>
        <path class="cls-2" d="M1274.48,117.28c-1.07-1.87-1.87-3.14-3.52-4.38.76,1.36,2.35,4.08,3.52,4.38Z"/>
        <path class="cls-2" d="M1302.91,96.33c-1.49-.8-1.46-3.18-2.83-3.84.59,1.07.96,3.4,2.83,3.84Z"/>
        <path class="cls-2" d="M1288.12,99.45c.63.51,1.22,1.23,1.93,1.41-.59-.74-1.01-2.25-1.93-1.41Z"/>
        <path class="cls-2" d="M1291.02,97.18c-.51-.47-.81-1.9-1.46-1.72.44.9.51,1.58,1.46,1.72Z"/>
        <path class="cls-2" d="M1291.86,91.23c-1.49.48-.18,2.13.6,1.96-.23-.79-.72-.39-1-1.02.36-.27.84-.51.4-.94Z"/>
        <path class="cls-2" d="M1271.49,100.76c1.64,3.44,1.73.48,0,0h0Z"/>
        <path class="cls-2" d="M1261.28,104.2c-.12-.61-1.43-2.41-2.22-2.9.58,1.25,1.09,2.28,2.22,2.9Z"/>
        <path class="cls-2" d="M1259.42,104.44l-.76-1.17c-.95.12.28,2.01.76,1.17Z"/>
        <path class="cls-2" d="M1244.22,109.52c.23.68.84,1.34,1.54,1.33.07-.44-.86-1.56-1.54-1.33Z"/>
        <path class="cls-2" d="M1242.43,103.65c-1.76-2.62-2.38-1.17,0,0h0Z"/>
        <path class="cls-2" d="M1274.46,151.92c.23,1.27,1.95,1.99,1.51,3.36.62-.05,1.13.39,1.7.55-1.81-1.27-1.39-3.45-3.22-3.91Z"/>
        <path class="cls-2" d="M1278.9,111.65c-.32.22-.59.23-.86.23.67.99,1.46,1.38,2.07,2.66-.31.19-.52-.08-.86.24.62.53.06.83.53,1.33,1.32-.35-.2-1.26.57-1.72,1.18-.48,1.71,2.1,2.85,1.8-1.87-2.06-4.85-8.51-7.96-10.18,2.45,2.31,1.52,5.21,3.66,5.64Z"/>
        <path class="cls-2" d="M1299.63,98.52c-.09-.13.02-.4.23-.16,1.57,2.11-.16-1.2-1-1.02-.04.23.18,1.48.77,1.18Z"/>
        <path class="cls-2" d="M1285.51,83c3.14,1.37,4.89,5.13,6.21,6.97-.15-.26-.5-.53-.39-.08,4.01.37,3.62,7.04,7.38,7.21-3.84-3.58-5.32-9.1-9.57-12.15.04-.47-.34-1.02-.3-1.49-2.32-.22-3.28-5.06-5.13-6.35-.17,1.59,1.67,3.81,2.73,5.25l-.94.63Z"/>
        <path class="cls-2" d="M1255.38,104.44c.65.13,1.19.71,1.85.78.3-.91-1.95-1.02-1.85-.78Z"/>
        <path class="cls-2" d="M1891.46,123.52c-.45.7-.74,1.36-.64,1.93.88-.22,1.08-1.39.64-1.93Z"/>
        <path class="cls-2" d="M1972.23,144.54c.5-.55,1.05-.7,1.51-1.64-1-.91-1.47.96-1.51,1.64Z"/>
        <path class="cls-2" d="M1975.44,142.96c.56-.12,1.71-1.47,1.05-1.96-.24.63-1.49,1.48-1.05,1.96Z"/>
        <path class="cls-2" d="M1970.56,128.9c.25-.64,1.49-1.49,1.06-1.98-.75.17-1.15,1.36-1.06,1.98Z"/>
        <path class="cls-2" d="M1983.17,132.6c.63-1.22,1.88-2.58,1.51-3.58-1.16,1.34-1.69,2.54-1.51,3.58Z"/>
        <path class="cls-2" d="M1943.1,82.56c-1.89.4-3.36,4.32-4.42,5.99,1.83-1.47,2.35-4.49,4.42-5.99Z"/>
        <path class="cls-2" d="M1965.17,97.32c.54-.35,1.07-.66,1.59-1.2-.38-1.37,3.5-4.78,2.11-5.21-.91,3.18-4.95,5.69-5,8.63,1.17-.28.88-1.46,1.3-2.22Z"/>
        <path class="cls-2" d="M1985.22,76.45c-.38-.32-.74-.48-1.08-.43-.57.62-.32,1.08.32,1.45l.76-1.02Z"/>
        <path class="cls-2" d="M1989.09,53.19c-.46.44-.09.74-.15,1.11-2.29,1.41-4.93,5.09-5.07,7.43,2.15-3.88,4.75-5.89,6.43-9.63,1.97-2.57-.44-.2-1.21,1.09Z"/>
        <path class="cls-2" d="M1997.14,66.73c-.63.76-.98,1.47-.92,2.1.47-.12,1.33-1.51.92-2.1Z"/>
        <path class="cls-2" d="M1969.75,42.22c-.4.8-1.87,1.81-1.57,2.48.9-.24,1.49-1.74,1.57-2.48Z"/>
        <path class="cls-2" d="M1995.06,60.68c-.15,1.1-1.38,2.41-1.26,3.46.62-1.05,2.68-3.5,1.26-3.46Z"/>
        <path class="cls-2" d="M1999.58,61.77c-.69,1.2-2.01,2.52-1.68,3.54.51-1.17,1.75-2.47,1.68-3.54Z"/>
        <path class="cls-2" d="M1965.15,35.74c-.37.87-1.22,1.84-.51,2.5.22-.84,1.11-1.81.51-2.5Z"/>
        <path class="cls-2" d="M1970.97,41.11c1.63-1.89,2.71-3.25,3.55-5.47-1.19,1.36-3.55,4.15-3.55,5.47Z"/>
        <path class="cls-2" d="M1999.96,61.27c.4-1.84,2.81-2.78,3.11-4.44-.92,1.04-3.17,2.36-3.11,4.44Z"/>
        <path class="cls-2" d="M1992.79,47.53c-.35.86-.92,1.76-.91,2.55.59-.91,2-1.96.91-2.55Z"/>
        <path class="cls-2" d="M1995.87,49.55c.33-.71,1.7-1.61,1.35-2.19-.8.82-1.46,1.17-1.35,2.19Z"/>
        <path class="cls-2" d="M2001.06,47.93c.37.25.74.64,1.06.02-.89-1.32-2.2.69-1.82,1.41.74-.57.2-.9.76-1.44Z"/>
        <path class="cls-2" d="M1987.02,31.06c-3.07,3.13-.03,1.97,0,0h0Z"/>
        <path class="cls-2" d="M1980.85,22c.59-.38,2.08-2.49,2.38-3.51-1.12,1.12-2.04,2.09-2.38,3.51Z"/>
        <path class="cls-2" d="M1981.13,18.89c-.37-.93-1.98,1.14-1,1.29l1-1.29Z"/>
        <path class="cls-2" d="M1970.06,8.76c.47-.11,1.38-1.56.97-2.17-.64.53-1.16,1.44-.97,2.17Z"/>
        <path class="cls-2" d="M1976.59,2.22c2.23-2.94.6-2.98,0,0h0Z"/>
        <path class="cls-2" d="M1935.81,56.39c-1.22.81-1.47,2.9-2.98,3.07.23.61-.07,1.33-.07,1.99.77-2.43,3.1-2.98,3.05-5.06Z"/>
        <path class="cls-2" d="M1982.67,37.11c-1.7,3.48-4.91,3.76-4.77,6.12-.31-.23-.39-.5-.46-.78-.83,1.1-1.02,2.07-2.16,3.24-.27-.24-.05-.57-.47-.78-.38.86-.83.41-1.22,1.1.71,1.19,1.24-.74,1.91-.15.81.99-1.69,2.63-1.07,3.67,1.6-2.78,7.38-8.54,8.25-12.43Z"/>
        <path class="cls-2" d="M1996.85,58.84c.11-.14.41-.15.22.17-1.71,2.47,1.17-.65.76-1.43-.25.06-1.45.79-.98,1.26Z"/>
        <path class="cls-2" d="M2009.6,38.81l-.88-.7c-.55,3.76-3.86,7.09-5.37,9.19.22-.26.4-.72-.02-.42.71,4.24-6.14,6.57-5.29,10.46,2.58-5.37,7.75-9.13,9.68-14.71.48-.15.94-.76,1.42-.91-.4-2.46,4.23-5.41,5.03-7.82-1.65.47-3.39,3.25-4.56,4.93Z"/>
        <path class="cls-2" d="M1979.08,16c.03.73-.42,1.54-.32,2.25,1.01-.07.54-2.45.32-2.25Z"/>
        <path class="cls-2" d="M1995.58,68.73c-2.1,6.64-6.74,9.25-8.48,15.14-1.54-.02-.86,2.58-2.76,2.3.37.74,1.56-.06.71.94-.33.29-.69.24-.98.85-.76-1.55-1.46-.54-2.6-.76-2.78,4.08-4.44,7.65-6.87,11.16-.17.85,1.02.04.71.93-.73,1.47-1.63,2.36-2.39,4.17-1.25-.17-2.45.57-3.25-.83,3.41-4.65,6.13-12.32,9.9-18.07,1.15-1.74,3.32-2.84,2.56-4.86-1.33,2.84-4.38,3.73-6.07,5.81-2.19,2.7-2.88,6.76-5.15,9.3-.64.72-1.29.75-1.78,1.46-.39.55-.37,1.97-.84,2.56-.52.64-1.05.33-1.41.95-.73,1.26-.61,2.7-1.56,4-1.61,2.16-3.92,3.77-5.29,6.41-.72.16-1.61-.74-1.41-1.43,2.03-2.85,2.28-3.41,4.24-6.39-.33.26-.68.31-1.06.01.71-.85,1.22-.97,1.11-1.97-1.49,2.2-3.15.77-3.45-.55,4.13-5.18,7.99-12.38,11.8-16.36-.14-.84-.57-1.61-.21-2.56,2.96-5.42,7.51-10.61,10.75-16.37-5.69,5.14-9.4,12.13-13.87,19.63-.41.12-.89-.55-1.25.26-1.49,3.49-4.16,6.91-5.59,9.42-1.74.35-3.49.66-5.24.91-4.4,8.07-12.17,10.84-17.13,18.08-.69-.52-1.28-.09-1.93-.21-.18-.98-.67-1.88-.71-2.89.76-1.22,1.21-2.7,2.43-3.41,2.06-7.55,9.41-15.25,13.6-23.57-.5-1.72-1.9-1.62-3.33-1.67-3.22,3.18-4,7.59-8.07,10.49-3.68-.49-4.63-3.29-2.69-6.39,3.24-5.12,9.53-13.46,12.16-16.39,8.5-15.72,19.59-29.49,29.32-45.02-6.56,7.78-10.73,16.36-17.14,22.93.52.33.54.76.08,1.29-5.41,7.08-11.09,15.19-14.71,22.2-3.55,1.51-5.25,8.04-8.85,9.57-2.15-2.5-1.78-5.57-.46-8.84-1.87,2.97-4.63,5.04-6.49,7.33-1.55,1.87-3.1,5.86-4.35,6.47-.28.14-.5-.48-.8-.24-.21.41-.93,1.61-.98,1.75-.43,1.3-.1,1.23-1.05,2.44-1.23,1.58-1.24,1.52-2.56,2.14-4.28,5.42-7.21,11.5-11.62,16.8-.44.62-1.21,1.7-1.32,1.85-.53.43-.68-.34-1.25.3-.32.37.36.56-.11,1.12-1.72,2.07-3.67,4.45-5.12,6.71-3.55,5.67-8.51,11.85-11.39,16.49-.84.9-.77-.97-1.66.41-5.71,7.47-11.66,15.48-17.36,23.75-.49.58-1.21-.6-1.65.43-.92,1.05.41,1.51-.33,2.51-.72.45-1.46.82-2.24.8-7.07,9.11-12.47,19.7-18.45,29.92-5.53,9.53-11.39,18.84-16.77,27.79-4.22,7.05-7.42,14.35-11.98,20.12-4.41,8.83-8.97,16-13.72,23.88-3.43,5.68-7.86,11.52-10.26,16.55-.41.87-.46,2.18-1.06,3.13-.89,1.43-2.61,2.36-3.51,3.77-2.44,3.83-3.93,8.39-6.38,12.2-2.8,4.22-5.51,8.32-8.26,12.47-1.55,2.35-2.22,5.1-3.65,7.49-.95,1.58-2.63,2.8-3.64,4.42-2.84,4.55-4.72,9.82-7.66,13.96-3.93,5.52-8.67,10.77-11.26,17.25-4.75,5.94-9.8,13.62-13.32,19.96-5.08,3.69-6.46,10.1-10.53,15.36-.44.55-1.06.7-1.55,1.22-6.96,7.39-10.64,18.3-16.39,24.22-.47,3.36-3.27,4.61-5.12,6.77-1.99,2.35-2.78,5.22-4.44,7.63-.54.79-1.51,1.19-2.12,1.94-1.87,2.3-2.75,5.21-4.46,7.99-2.56,4.16-7.52,7.02-9.48,12.46-3.34,2.92-7.92,7.51-9.74,12.24-6.62,5.46-9.57,13.68-15.37,20.01-1.96,2.14-4.71,3.35-5.34,6.5-3.01,1.51-4.36,4.98-6.74,7.76-1.02,1.19-2.19,2.32-3.37,3.45-.29-1.4.08-2.51-.79-3.36-.92-.89-2.67-.84-4.4.48-5.99-.28-8.17-9.95-13.03-13.33-.89-4.3-5.43-5.9-7.38-9.28-.39-.68-.43-1.77-.9-2.42-.78-1.08-2.54-2.03-3.79-3.24-2.14-2.08-3.49-4.26-5.47-5.83.21-4.64-4.01-5.06-5.67-7.7-.63-.99-.53-2.44-1.28-3.52-.63-.91-1.91-1.33-2.54-2.36-.64-1.03-.6-2.57-1.28-3.52-.5-.71-1.35-.96-1.7-1.58-.46-.81-.24-1.68-.9-2.42-.7-.78-2.18-1.03-2.87-1.83-2.54-2.9-3.92-6.95-7.7-8.73-2.24-6.36-7.79-9.45-10.62-16.86-1.56-1.26-2.7-2.2-3.38-4.17-.42-.25-.98.13-1.33-.48-1.59-3.77-5.94-5.92-7.44-9.9-.36.07-.7.1-1.02-.01-2.12-5.46-6.07-11.52-9.96-14.28-.81-3.66-4.43-6.08-6.9-9.58-1.16-1.65-1.65-3.72-2.97-5.1-2.6-2.7-4.73-7.1-7.05-9.81-.69-.81-1.94-1.2-2.63-1.98-1.26-1.41-1.73-3.53-3.21-4.94-5.69-5.45-9.81-13.37-13.64-18.92-1.19-1.72-2.95-2.67-4.55-4.41-2.64-2.88-3.68-7.05-6.19-10.04-.63-.75-1.63-1.22-2.24-1.89-1.57-1.75-2.38-3.89-3.82-5.88-3.52-4.88-8.23-8.96-10.35-14.37-5.62-4.89-11.11-13.91-16.12-20.65-2.34-.68-2.27-2.91-3.53-4.4-3.9-4.6-9.69-9.93-12.28-15.78-17.23-20.22-31.88-43.58-49.25-63.36-.2-2.35-2.62-4.54-4.29-5.57.38-.74-.34-1.7-.67-2.59-3.4-1.63-4.49-5.89-7.21-9.03-2.1.18-2.38-2.66-4.4-3.15.45-1.12,1.22.25,1.02-1.01-4.24-.3-8.11-8.65-11.15-11.47.15.24-.22.57-.47.31.12-1.28-1.5-.72-2.08-1.65-4.49-5.86-10.16-8.32-14.71-12.81-.06-.92-.1-3.47-1.52-3.37.48,1.05,1.38,2.18.2,2.89-.7-1.81-2.62-3.51-4.23-3.92-1.43-1.85-1.51-3.26-3.53-4.39-.27-.43-.89,1.23-1.48.31-1.26-3.11-3.19-3.77-4.28-6.58-1.55.04-3.82-2.57-3.85-3.85-1-.46-.29,1.49-1.02,1.01-1.84-1.95-3.69-3.67-4.36-6.19-.85-.15-1.75,0-2.48-.71-.46-.5,1.15-.58.25-1.17-1.14-.35-.65,1.35-1.57,1.72-1.13-.83-1.55-.22-2.56-.32-.42-1.97-2.43-2.1-3.77-3.22-1.38-1.15-2.08-3.01-3.37-4.15-1.1-.98-2.25-.92-3.16-2.28-.74-1.1-.54-2.59-1.44-3.76-.63-.51-.57,1.03-1.24.15-3.2-4.04-6.39-8.08-9.99-10.2,5.11,3.53,5.6,8.39,10.13,11.45-.6,1.36,1.95,1.44.98,3.06.79-.14.54-1.4,1.09-.39.13.37-.04.67.37,1.1-1.65.27-1.03,1.16-1.65,2.11,2.54,3.53,5.04,5.93,7.2,9.01.69.37.43-.89,1.09-.39,1.02,1.03,1.46,2.06,2.76,3.22-.63,1.06-.43,2.31-1.98,2.65-2.79-4.24-8.51-8.65-12.13-13.48-1.09-1.47-1.24-3.69-3.3-3.53,1.99,1.92,1.61,4.85,2.8,6.89,1.54,2.64,4.84,4.3,6.22,6.98.39.75.16,1.33.6,1.95.34.49,1.59.84,1.93,1.41.36.63-.11,1.01.29,1.49.83.97,2.15,1.25,2.92,2.43,1.29,1.98,1.74,4.5,3.5,6.42-.14.68-1.29,1.22-1.8.86-1.68-2.57-2.04-2.96-3.9-5.49.1.36.01.68-.4.94-.48-.84-.38-1.33-1.31-1.49,1.37,1.89-.54,2.97-1.82,2.89-2.97-4.99-7.82-10.26-9.86-14.66-.79-.09-1.63.09-2.32-.47-3.62-4.01-6.44-9.37-10.25-13.71,2.35,6.37,7.05,11.43,11.92,17.32-.05.39-.82.65-.25,1.17,2.49,2.22,4.47,5.45,6.13,7.37-.36,1.62-.76,3.24-1.22,4.85,5.37,5.99,4.6,13.66,8.93,19.96-.72.46-.59,1.1-.95,1.64-.92-.11-1.9.08-2.8-.16-.75-1-1.86-1.8-1.98-3.06-5.72-3.86-9.44-12.42-15.17-18.17-1.7,0-2.15,1.26-2.75,2.5,1.52,3.65,5.14,5.42,6.02,9.78-1.89,3.12-4.67,3.19-6.61.69-3.22-4.13-8.06-11.74-9.61-14.79-10.31-11.5-18.28-24.5-28.46-36.56,4.44,7.56,10.47,13.2,13.9,20.35.49-.38.87-.3,1.16.24,4.09,6.53,8.97,13.54,13.69,18.47-.06,3.5,4.99,6.63,4.93,10.17-3.03,1.25-5.56.16-7.9-1.81,1.87,2.38,2.6,5.31,3.87,7.51,1.04,1.8,3.87,4.21,3.9,5.48,0,.28-.61.31-.53.64.27.29,1.02,1.24,1.12,1.32.95.72,1.02.41,1.69,1.56.87,1.49.81,1.49.82,2.81,2.96,5.19,7.04,9.37,9.84,14.63.36.56.98,1.5,1.07,1.64.15.58-.58.5-.25,1.17.19.38.63-.16.93.39,1.09,2.05,2.36,4.39,3.73,6.26,3.42,4.66,6.66,10.74,9.45,14.55.43.98-1.15.4-.33,1.56,4.04,7.08,8.48,14.48,13.17,21.82.29.6-1.02.87-.33,1.56.51,1.11,1.47.08,2.01,1.02.08.76.08,1.51-.26,2.18,4.8,8.81,11.57,16.61,17.8,24.8,5.8,7.64,11.23,15.57,16.58,22.93,4.22,5.8,9.09,10.76,12.07,16.51,5.66,6.55,9.83,12.71,14.53,19.25,3.38,4.72,6.47,10.36,9.77,14.01.57.63,1.67,1.08,2.24,1.89.85,1.21.9,2.99,1.73,4.21,2.24,3.31,5.52,6.01,7.74,9.32,2.42,3.73,4.78,7.36,7.17,11.03,1.35,2.07,3.46,3.51,4.91,5.49.96,1.31,1.3,3.15,2.27,4.53,2.72,3.87,6.48,7.13,8.8,10.96,3.11,5.12,5.58,10.87,10.15,15.1,3.18,5.94,7.77,12.67,11.82,17.68,1.1,5.55,6.08,8.7,8.99,13.85.31.54.18,1.13.44,1.71,3.67,8.28,11.77,14.73,14.65,21.51,2.76,1.4,2.73,4.23,3.88,6.49,1.24,2.44,3.47,3.97,4.98,6.11.49.7.47,1.66.9,2.41,1.32,2.3,3.56,3.9,5.37,6.2,2.7,3.43,3.31,8.61,7.38,11.88,1.32,3.76,3.55,9.15,7.15,12.03,2.47,7.33,8.79,12.15,12.34,19,1.2,2.31,1.29,5.09,3.88,6.49.28,3.08,2.84,5.23,4.55,8.05,1.7,2.78,2.89,6.06,4.54,9.05,2.35,4.26,6.76,8.54,6.26,13.26-4.38,4.96,5.26,2.31,6.39,6.21.09,2.41-1.56,3.2-2.99,5.23.24,2.05,1.7,3.13,3.13,4.3.66,2.06-.89,4.93.65,7.21.7,1.04,2.34,1.59,3.09,2.67,1.76,2.53,2.41,5.41,4.64,7.66,1.96,1.98,4.67,3.26,6.56,5.44,1.4,1.61,2.14,1.94,3.24,2.91,2.71,2.4,4.26,4.86,6.73,5.5-.2.74-.39,1.48-.67,2.23.74,1.67,2.2,3.65,2.78,6.13.26,1.11-.26,2.62.13,3.61,1.45,3.67,5.77,5.53,5.56,9.77.53.73,1.1.44,1.64.72,5.11,4.81,10.34,7.81,13.81,12.08,3.88.45,6.3,3.33,9.72,4.04,2.13.44,4.89,0,7.17.14,2.61.16,4.94-.07,7.4.31,1.57,1.42,3.25.12,4.84,1,2.67-1.04,5.31-1.29,7.98-2.41.7.28,1.42.1,2.11.63,6.33-1.72,13.37-2.97,19.42-7.74.54-.43,1.68-1.37,2.23-2.01,3.55-4.32,9.53-10.51,13.58-10.95.82-.63.27-1.06,1.09-1.69,1.44.37,5.29-.31,6.87-2.36.55-.71.13-3.05,1.12-4.76,1.47-2.54,5.11-3.12,6.48-5.37.63-1.03.16-3.04.67-4.24,1.36-3.1,6.01-7.82,8.07-9.65,1.67-1.42,3.21-1.23,3.99-2.69.7-1.32.22-3.11-1.58-4.33-1.19-6.27,8.34-12.58,10.64-18.98,4.26-2.74,4.81-8.04,7.79-11.47.59-.69,1.7-1.22,2.23-1.99.89-1.27,1.38-3.49,2.28-5.3,1.54-3.1,3.41-5.44,4.46-8.14,4.82-1.84,4.08-6.32,6.33-9.18.84-1.07,2.36-1.63,3.26-2.86.76-1.04.83-2.52,1.72-3.63.88-1.1,2.47-1.76,3.26-2.87.59-.83.61-1.79,1.15-2.42.7-.83,1.67-.99,2.22-2,.58-1.06.4-2.68.99-3.75,2.17-3.9,5.86-7.17,6.53-11.8,5.77-5.2,7.22-12.22,13.88-18.5.8-2.16,1.41-3.72,3.19-5.33.12-.55-.45-.92.06-1.56,3.27-3.38,4.03-8.76,7.53-12.16-.18-.32-.32-.65-.31-1.03,4.79-4.72,9.59-11.56,11.11-16.76,3.39-2.56,4.7-7.32,7.32-11.48,1.25-1.95,3.13-3.44,4.06-5.43,1.81-3.89,5.46-8.16,7.37-11.78.57-1.08.54-2.51,1.08-3.58.98-1.94,2.92-3.44,3.82-5.59,3.53-8.29,9.9-16.26,14.03-22.79,1.28-2.02,1.61-4.23,2.77-6.67,1.92-4.03,5.67-7.11,7.75-11.06.52-1,.63-2.21,1.09-3.15,1.18-2.41,3.01-4.27,4.46-6.67,3.54-5.88,5.88-12.54,10.43-17.3,2.81-7.96,9.73-17.83,14.54-26.08-.16-2.63,2.04-3.66,3.05-5.64,3.11-6.11,6.26-14.43,11.07-19.86,13.66-26.9,31.28-52.66,44.67-79.17,2.23-1.32,3.54-4.75,3.96-6.89.85.03,1.55-1.14,2.3-1.89.42-4.14,4.26-7.18,6.43-11.33-.89-1.99,1.81-3.58,1.61-5.82,1.26-.08.17,1.32,1.34.55-1.12-4.34,5.77-12.04,7.53-16.37-.18.26-.63.05-.46-.32,1.3-.47.21-1.82.93-2.83,4.22-7.2,4.87-13.88,7.85-20.44.89-.48,3.4-1.65,2.84-3.02-.88.95-1.72,2.35-2.8,1.49,1.57-1.51,2.63-4.18,2.53-5.98,1.38-2.26,2.74-2.96,3.22-5.49.34-.46-1.5-.34-.77-1.34,2.68-2.65,2.72-4.88,5.15-7.22-.53-1.53,1.34-4.98,2.59-5.57.14-1.22-1.57.37-1.32-.58,1.33-2.74,2.53-5.3,4.84-7.07-.11-.91-.53-1.76-.04-2.79.36-.68.92.91,1.24-.26.01-1.29-1.54-.06-2.19-.83.49-1.49-.25-1.64-.45-2.71,1.84-1.27,1.38-3.35,2.09-5.18.73-1.89,2.39-3.39,3.15-5.18.65-1.54.26-2.67,1.34-4.17.88-1.22,2.43-1.66,3.33-3.06.32-.85-1.2-.13-.52-1.19,3.11-4.95,6.15-9.96,7.28-14.46ZM1336.83,135.07c.3-.14.38-.33.32-.55,1.45-.28.58,1.94-.32.55ZM1336.06,134.91c-1.42-1.85-4.32-3.82-4.44-5.8-.25-.38-1.08,1.26-1.8.86,0-1.22-.23-2.49-1.2-3.91,1.85-1.44,2.64,2.17,4.42,1.11.59,1.19.86,1.78,2.08,1.65.89,2.67,2.4,2.33,2.9,4.47-1.4.33-.63.89-1.96,1.63ZM1971.15,112.03c.23.24.45.24.64.07.73,1.33-1.74,1.45-.64-.07ZM1977.9,104.78c-1.02,1.1-1.52,1.64-1.02,2.8-2.39,2.05-1.62,3.4-3.58,4.85-.76-1.27-1.08-.24-2.23-1.25,1.39-2.25,2.52-5.99,4.45-6.98.3-.42-1.58-.54-1.4-1.43,1.22-.52,2.43-1.31,3.56-2.9,1.99,1.24-1.38,3.59.22,4.91Z"/>
      </g>
    </g>
  </g>
</svg>